<svg xmlns="http://www.w3.org/2000/svg" width="312.98" height="83.238" viewBox="0 0 312.98 83.238">
  <g id="Logo" transform="translate(-86.18 -79.023)">
    <path id="B" d="M124.385,110.276A16.675,16.675,0,0,0,133.793,95.3c0-9.791-6.911-16.223-18.527-16.223H86.18v66.715H114.4c13.823,0,21.694-7.487,21.694-18.815C136.1,119.2,131.777,113.156,124.385,110.276ZM121.6,97.7c0,5.376-4.224,8.735-9.983,8.735H98.275V88.966H111.81C118.338,88.966,121.6,92.518,121.6,97.7Zm-8.927,38.205h-14.4V116.324h14.3c6.816,0,11.327,3.552,11.327,9.791S119.778,135.906,112.674,135.906Z" fill="white"/>
    <path id="a" d="M180.177,98.354v6.635c-3.45-4.512-8.669-6.989-15.393-6.989-13.358,0-23.089,9.731-23.089,23.708,0,13.889,9.731,24.328,23.089,24.328,6.723,0,11.943-2.742,15.393-7.342v7.281h10.439V98.354Zm-13.889,37.774a14.42,14.42,0,0,1,0-28.839c8.05,0,13.535,5.839,13.535,14.42C179.823,130.2,174.338,136.128,166.288,136.128Z" fill="white"/>
    <path id="c" d="M219.582,146.025c12.228,0,19.915-7.686,22.011-14.674l-9.957-4.018a11.814,11.814,0,0,1-11.792,8.822c-7.424,0-13.189-5.59-13.189-14.15s5.765-14.15,13.1-14.15a11.6,11.6,0,0,1,11.617,8.909l9.958-3.931c-2.1-7.162-9.783-14.849-21.749-14.849-13.888,0-24.02,10.481-24.02,24.107S205.868,146.025,219.582,146.025Z" fill="white"/>
    <path id="k" d="M290.477,145.794l-21-25.933,20.637-21.189H276.962l-18.628,18.45V79.043h-11.6v66.751h11.6V123.148l19.45,22.646Z" fill="white"/>
    <g id="i">
      <rect id="i-2" data-name="i" width="11.68" height="47.48" transform="translate(295.43 98.31)" fill="white"/>
      <rect id="i_dot" data-name="i dot" width="11.68" height="11.72" transform="translate(295.43 79.09)" fill="#e76086"/>
    </g>
    <path id="f" d="M340.51,88.009h2.876V79.023h-3.325c-12.491,0-19.142,7.189-19.142,18.782v.629h-7.728v9.8h7.728v37.564h11.413V108.229h10.874v-9.8H332.332v-1.8C332.332,91.244,335.3,88.009,340.51,88.009Z" fill="white"/>
    <path id="y" d="M387.166,98.109l-13.539,38.618L361.269,98.109h-11.9L366.266,146H369.9l-6.542,16.265h11.358L380.9,146,399.16,98.109Z" fill="white"/>
  </g>
</svg>
